<svg width="677" height="383" viewBox="0 0 677 383" fill="none" xmlns="http://www.w3.org/2000/svg">
<g clip-path="url(#clip0_82_733)">
<mask id="mask0_82_733" style="mask-type:luminance" maskUnits="userSpaceOnUse" x="0" y="0" width="816" height="1056">
<path d="M0 0H816V1056H0V0Z" fill="white"/>
</mask>
<g mask="url(#mask0_82_733)">
<path d="M643.813 171.688C628.572 184.549 609.072 192.856 594.125 192.856H594.12C592.897 192.856 591.716 192.797 590.604 192.672L590.378 192.651L590.128 192.672C590.118 192.672 588.645 192.776 586.16 192.776C579.205 192.776 561.308 191.924 545.672 184.008C535.625 178.933 502.346 154.337 451.801 114.665C483.188 89.6495 503.45 72.9401 513.509 64.6828C551.798 33.1628 574.845 32.5215 584.926 32.5215C617.925 32.5215 640.882 51.1855 641.108 51.3815L641.397 51.5855C641.473 51.6268 649.233 56.5468 656.841 67.0828C663.829 76.7721 672.126 93.3468 671.961 117.361C671.826 137.192 661.825 156.481 643.813 171.688ZM360.924 175.852L360.809 175.952C357.252 178.888 353.584 180.987 349.845 182.289C349.856 182.299 349.872 182.304 349.886 182.309C338.362 186.744 327.59 182.309 327.59 182.309C327.59 182.309 327.616 182.304 327.65 182.299C323.908 180.992 320.23 178.893 316.668 175.952L316.553 175.852C303.948 166.497 265.718 137.824 234.72 114.56C251.169 101.624 263.302 91.8988 264.08 91.2721L318.116 51.1255L324.398 46.9668C324.594 46.8415 324.774 46.7161 324.969 46.5908C330.536 43.5695 340.682 40.1321 351.946 46.2201C352.321 46.4708 352.686 46.7108 353.077 46.9668L357.006 49.5668L359.361 51.1255L413.397 91.2721C414.174 91.8988 426.308 101.624 442.757 114.56C411.758 137.824 373.529 166.497 360.924 175.852ZM131.813 184.008C116.17 191.924 98.2744 192.776 91.3251 192.776C88.8397 192.776 87.361 192.672 87.3517 192.672L87.1064 192.651L86.8757 192.672C85.7637 192.797 84.5757 192.856 83.357 192.856H83.3517C68.4064 192.856 48.9011 184.549 33.6664 171.688C15.6544 156.481 5.65839 137.192 5.51839 117.361C5.34639 93.3468 13.649 76.7721 20.6384 67.0828C28.245 56.5468 36.0064 51.6268 36.081 51.5855L36.3717 51.3815C36.5971 51.1855 59.5597 32.5215 92.553 32.5215C102.638 32.5215 125.68 33.1628 163.969 64.6828C174.029 72.9401 194.285 89.6495 225.674 114.665C175.132 154.337 141.848 178.933 131.813 184.008ZM661.149 63.6215C653.444 53.0388 645.437 46.3508 644.184 45.5335C641.969 43.7601 618.47 25.2215 584.516 26.2495C556.232 27.1055 539.614 34.8415 506.05 62.8895C503.298 64.9535 476.54 86.3881 447.317 111.133C429.841 97.3801 416.929 87.0495 416.804 86.9388L416.724 86.8681L363.028 46.9868C362.497 46.4361 357.662 42.9481 352.998 40.0428C340.802 32.7921 329.905 37.0108 325.17 39.6161C320.3 42.5975 315.005 46.4108 314.449 46.9868L260.753 86.8681L260.673 86.9388C260.548 87.0495 247.636 97.3801 230.16 111.133C200.936 86.3881 174.18 64.9535 171.429 62.8895C137.865 34.8415 121.245 27.1055 92.9571 26.2495C59.0077 25.2215 35.5091 43.7601 33.2944 45.5335C32.0424 46.3508 24.0357 53.0388 16.3304 63.6215C2.65173 82.4388 -0.093605 103.252 0.00239499 117.391C0.167728 138.871 10.8397 159.633 30.1144 175.896C46.2864 189.544 67.1851 198.363 83.3517 198.363H83.357C84.6744 198.363 85.9637 198.299 87.201 198.183C87.7477 198.223 89.1957 198.288 91.3251 198.288C100.464 198.288 118.205 197.071 134.292 188.933C147.616 182.195 193.45 146.988 230.234 118.083C261.398 141.465 300.374 170.707 313.206 180.244C317.569 183.833 322.114 186.349 326.78 187.831C326.748 187.836 326.729 187.841 326.729 187.841C326.729 187.841 338.724 192.211 350.748 187.841C350.729 187.836 350.713 187.831 350.702 187.825C355.368 186.349 359.906 183.828 364.266 180.244C377.102 170.707 416.077 141.465 447.241 118.083C484.029 146.988 529.864 182.195 543.181 188.933C559.274 197.071 577.016 198.288 586.16 198.288C588.288 198.288 589.732 198.223 590.278 198.183C591.514 198.299 592.802 198.363 594.12 198.363H594.125C610.293 198.363 631.192 189.544 647.36 175.896C666.64 159.633 677.312 138.871 677.477 117.391C677.572 103.252 674.832 82.4388 661.149 63.6215Z" fill="#383838"/>
<path d="M656.269 118.544C654.627 134.958 646.689 149.266 632.705 161.072C615.54 175.877 594.412 177.024 588.329 177.024C587.477 177.024 587.007 176.989 586.957 176.989L586.672 176.974L586.391 177.024C586.376 177.024 584.712 177.274 581.871 177.274C573.699 177.274 557.481 175.316 540.832 162.238C523.095 148.294 492.703 124.532 477.837 112.933C508.325 89.5036 532.985 70.5503 532.985 70.5503C533.251 70.349 562.943 48.5356 590.809 48.5356C592.895 48.5356 594.939 48.665 596.912 48.8903C617.199 51.7516 633.081 60.7143 644.044 75.5503C652.221 86.573 654.405 96.7543 654.431 96.869L654.531 97.1796C654.551 97.265 657.521 106.234 656.269 118.544ZM368.585 189.841C363.5 193.738 358.335 196.58 353.137 198.358C353.143 198.358 353.148 198.364 353.153 198.364C338.187 204.136 324.985 198.578 324.985 198.578H324.991C319.579 196.821 314.188 193.909 308.888 189.841C290.931 176.097 245.076 140.885 208.636 112.882L211.783 110.433L297.253 46.9263L308.127 38.845L314.468 34.305C314.52 34.245 316.659 32.597 319.996 30.6583C327.391 26.6703 343.423 21.0636 361.821 33.4236C362.563 33.945 362.984 34.2756 363.009 34.305L369.352 38.845L380.224 46.9263L465.695 110.433L468.841 112.882C432.401 140.885 386.547 176.097 368.585 189.841ZM136.643 162.238C119.999 175.316 103.78 177.274 95.6081 177.274C92.7681 177.274 91.1108 177.024 91.0895 177.024L90.8028 176.974L90.5228 176.989C90.4721 176.989 90.0028 177.024 89.1508 177.024C83.0642 177.024 61.9401 175.877 44.7748 161.072C30.7855 149.266 22.8508 134.958 21.2055 118.544C19.9535 106.234 22.9295 97.265 22.9495 97.1796L23.0455 96.869C23.0695 96.7543 25.2535 86.573 33.4308 75.5503C44.3988 60.7143 60.2815 51.7516 80.5642 48.8903C82.5468 48.665 84.5868 48.5356 86.6708 48.5356C114.537 48.5356 144.229 70.349 144.495 70.5503C144.495 70.5503 169.16 89.5036 199.643 112.933C184.777 124.532 154.38 148.294 136.643 162.238ZM659.792 95.5623C659.465 94.0836 656.88 83.6063 648.483 72.2636C640.305 61.2263 624.851 47.2623 597.624 43.4303C595.408 43.1543 593.125 43.0236 590.809 43.0236C561.093 43.0236 530.932 65.1996 529.664 66.1463C529.639 66.177 504.356 85.601 473.347 109.42L469.007 106.013L373.065 34.741C370.008 32.5676 365.313 28.0676 358.529 24.401C344.561 17.0503 332.171 19.1543 325.04 21.629C314.875 25.417 308.305 31.9703 304.408 34.741L208.471 106.013L204.131 109.42C173.124 85.601 147.841 66.177 147.816 66.1463C146.548 65.1996 116.381 43.0236 86.6708 43.0236C84.3548 43.0236 82.0721 43.1543 79.8561 43.4303C52.6308 47.2623 37.1735 61.2263 28.9962 72.2636C20.5948 83.6063 18.0148 94.0836 17.6842 95.5623C17.2388 96.925 14.4668 106.173 15.6881 118.84C17.8495 141.245 30.7708 156.461 41.1962 165.265C59.7748 181.293 82.5868 182.536 89.1508 182.536C89.7975 182.536 90.2775 182.532 90.5482 182.51C91.2202 182.6 92.9935 182.792 95.6081 182.792C104.503 182.792 122.097 180.682 140.061 166.572C158.243 152.289 189.752 127.642 204.152 116.394C240.763 144.517 287.379 180.33 305.54 194.218C312.004 199.169 318.623 202.582 325.316 204.434H325.311C325.311 204.434 339.015 209.125 353.895 203.92H353.88C359.988 201.981 366.024 198.749 371.937 194.218C390.099 180.33 436.715 144.517 473.325 116.394C487.728 127.642 519.237 152.289 537.424 166.572C555.381 180.682 572.977 182.792 581.871 182.792C584.487 182.792 586.26 182.6 586.932 182.51C587.197 182.532 587.684 182.536 588.329 182.536C594.893 182.536 617.705 181.293 636.284 165.265C646.709 156.461 659.631 141.245 661.785 118.84C663.013 106.173 660.237 96.925 659.792 95.5623Z" fill="#383838"/>
<path d="M626.357 145.479C619.439 152.868 607.219 161.678 588.264 161.678C587.682 161.678 587.086 161.672 586.485 161.652L586.219 161.647L585.964 161.678C585.964 161.678 585.288 161.783 584.036 161.783C579.536 161.783 567.331 160.51 551.012 148.8C543.577 143.46 527.86 131.716 504.261 113.874C524.408 98.2563 538.621 87.1897 538.757 87.0683L538.983 86.8683C539.228 86.6577 562.421 64.4323 587.808 64.4323C589.646 64.4323 591.485 64.5377 593.26 64.7737L593.514 64.7977C604.808 65.255 616.556 70.8257 625.716 80.0603C634.92 89.323 640.165 100.958 640.08 111.995V112.095L640.101 112.191C640.786 122.762 635.391 135.835 626.357 145.479ZM383.24 199.44L383.113 199.535C372.819 208.182 362.377 213.715 351.931 216.104C351.936 216.11 351.945 216.11 351.954 216.115C338.317 219.962 325.857 216.19 325.857 216.19C325.857 216.19 325.872 216.184 325.883 216.184C315.325 213.84 304.764 208.279 294.363 199.535L294.232 199.44C264.169 177.11 217.329 141.055 182.287 113.924C210.52 92.5257 238.997 70.771 239.269 70.5697L300.199 25.2963L307.168 20.087C311.512 17.0643 317.449 12.411 325.365 9.36832C328.968 8.07632 339.139 5.175 350.221 8.69766C350.566 8.80833 350.924 8.923 351.264 9.043C351.333 9.06833 351.404 9.099 351.475 9.11768C359.717 12.1497 365.844 16.979 370.308 20.087L377.277 25.2963L438.213 70.5697C438.479 70.771 466.956 92.5257 495.188 113.924C458.204 142.563 413.456 176.999 383.24 199.44ZM126.461 148.8C110.149 160.51 97.9425 161.783 93.4425 161.783C92.1905 161.783 91.5092 161.678 91.5092 161.678L91.2599 161.647L90.9945 161.652C90.3919 161.672 89.7959 161.678 89.2159 161.678C70.2612 161.678 58.0359 152.868 51.1212 145.479C42.0892 135.835 36.6919 122.762 37.3732 112.191L37.3932 112.095V111.995C37.3132 100.958 42.5585 89.323 51.7639 80.0603C60.9225 70.8257 72.6706 65.255 83.9692 64.7977L84.2185 64.7737C85.9932 64.5377 87.8358 64.4323 89.6705 64.4323C115.057 64.4323 138.245 86.6577 138.492 86.8683L138.717 87.0683C138.863 87.1897 153.071 98.2563 173.213 113.874C149.619 131.716 133.901 143.46 126.461 148.8ZM645.608 111.93C645.712 85.987 620.615 60.4643 593.86 59.291C591.891 59.0363 589.836 58.911 587.808 58.911C560.823 58.911 537.314 80.8403 535.254 82.8003C533.83 83.923 519.512 95.0897 499.712 110.418C471.107 88.7577 441.825 66.391 441.535 66.1603L371.431 13.1177C370.539 12.2603 365.573 8.38165 358.308 5.08032C358.313 5.08032 358.319 5.08032 358.324 5.07498C336.033 -6.35835 319.148 5.07498 319.148 5.07498C319.148 5.07498 319.168 5.08032 319.177 5.08032C311.903 8.37766 306.939 12.2603 306.047 13.1177L235.941 66.1603C235.646 66.391 206.371 88.7577 177.768 110.418C157.967 95.0897 143.641 83.923 142.224 82.8003C140.164 80.8403 116.657 58.911 89.6705 58.911C87.6358 58.911 85.5878 59.0363 83.6132 59.291C56.8638 60.4643 31.7665 85.987 31.8679 111.93C31.1252 123.93 37.0825 138.575 47.0945 149.252C54.7585 157.423 68.2812 167.194 89.2159 167.194C89.7812 167.194 90.3572 167.179 90.9292 167.168C91.3545 167.214 92.2065 167.299 93.4425 167.299C98.4692 167.299 112.057 165.931 129.677 153.28C137.284 147.819 153.441 135.75 177.727 117.371C212.893 144.598 260.437 181.208 290.885 203.839C306.047 216.535 321.672 222.979 337.345 222.979C337.816 222.979 338.273 222.958 338.733 222.948C339.2 222.958 339.661 222.979 340.131 222.979C355.804 222.979 371.431 216.535 386.592 203.839C416.899 181.312 464.056 145.003 499.752 117.371C524.037 135.75 540.189 147.819 547.8 153.28C565.423 165.931 579.009 167.299 584.036 167.299C585.273 167.299 586.119 167.214 586.55 167.168C587.121 167.179 587.693 167.194 588.264 167.194C609.192 167.194 622.719 157.423 630.385 149.252C640.396 138.575 646.353 123.93 645.608 111.93Z" fill="#383838"/>
<path d="M73.3861 383H56.4688V322.125H28.7354V383H11.8154V240.497H28.7354V305.38H56.4688V240.497H73.3861V383Z" fill="#383838"/>
<path d="M153.627 240.497V257.241H115.603V291.427H148.919V308.171H115.603V366.255H153.627V383H98.8594V240.497H153.627Z" fill="#383838"/>
<path d="M191.134 322.301V366.255H209.101C218.867 366.255 226.891 358.231 226.891 348.465V340.093C226.891 330.325 218.867 322.301 209.101 322.301H191.134ZM191.134 257.241V305.555H206.659C214.855 305.555 221.831 298.579 221.831 290.381V272.415C221.831 264.218 214.855 257.241 206.659 257.241H191.134ZM174.389 240.497H206.659C224.274 240.497 238.753 254.798 238.753 272.415V290.381C238.753 299.103 235.265 306.429 229.857 312.185C238.577 318.638 243.81 329.105 243.81 340.093V348.465C243.81 367.825 228.286 382.999 209.101 382.999H174.389V240.497Z" fill="#383838"/>
<path d="M286.725 257.241V319.509H300.853C308.004 319.509 313.587 313.232 313.587 306.08V270.845C313.587 263.346 307.656 257.241 300.156 257.241H286.725ZM286.725 383H269.807V240.497H300.156C316.899 240.497 330.677 254.101 330.677 270.845V306.08C330.677 313.929 327.015 321.777 321.608 327.358C328.237 333.288 331.9 341.836 331.9 350.382V383H314.98V350.382C314.98 342.708 308.529 336.254 301.028 336.254H286.725V383Z" fill="#383838"/>
<path d="M399.408 344.802L388.767 287.941C385.453 306.079 382.488 323.522 378.651 344.802H399.408ZM405.685 382.999L400.976 361.719H377.083L372.72 382.999H352.139L380.92 240.497H396.441L426.269 382.999H405.685Z" fill="#383838"/>
<path d="M463.079 383H446.334V240.497H464.478L495.175 331.544V240.497H511.921V383H496.393L463.079 289.16V383Z" fill="#383838"/>
<path d="M574.018 383H557.272V257.241H534.602V240.497H596.343V257.241H574.018V383Z" fill="#383838"/>
<path d="M674.844 240.497V257.241H636.817V291.427H670.134V308.171H636.817V366.255H674.844V383H620.074V240.497H674.844Z" fill="#383838"/>
</g>
</g>
<defs>
<clipPath id="clip0_82_733">
<rect width="677" height="383" fill="white"/>
</clipPath>
</defs>
</svg>
